<?xml version="1.0" encoding="UTF-8" standalone="no"?>
<svg
   width="114"
   height="40"
   viewBox="0 0 114 40"
   fill="none"
   version="1.1"
   id="svg46"
   sodipodi:docname="7a43705ce251514ee165eaf2cae2b68b.svg"
   xmlns:inkscape="http://www.inkscape.org/namespaces/inkscape"
   xmlns:sodipodi="http://sodipodi.sourceforge.net/DTD/sodipodi-0.dtd"
   xmlns="http://www.w3.org/2000/svg"
   xmlns:svg="http://www.w3.org/2000/svg">
  <defs
     id="defs50" />
  <sodipodi:namedview
     id="namedview48"
     pagecolor="#ffffff"
     bordercolor="#666666"
     borderopacity="1.0"
     inkscape:pageshadow="2"
     inkscape:pageopacity="0.0"
     inkscape:pagecheckerboard="0" />
  <path
     d="m 17.1835,0 c -0.0856,0.955678 -0.1499,1.8795 -0.1927,2.77147 -0.0214,0.89196 -0.0321,1.58218 -0.0321,2.07063 0,0.46722 0.0107,0.91321 0.0321,1.33796 0.0214,0.42474 0.0428,0.78578 0.0642,1.0831 H 16.3163 C 16.0379,5.60665 15.6525,4.31117 15.16,3.37673 14.6675,2.42105 14.0573,1.74146 13.3293,1.33795 12.6226,0.93444 11.7769,0.732685 10.7919,0.732685 H 9.73197 C 9.111,0.732685 8.63993,0.785779 8.31874,0.891967 7.99756,0.998153 7.78343,1.21053 7.67637,1.52909 7.56931,1.84764 7.51578,2.3361 7.51578,2.99446 V 18.9862 c 0,0.8282 0.08565,1.4441 0.25695,1.8476 0.1713,0.4035 0.50319,0.669 0.99567,0.7964 0.49249,0.1274 1.22052,0.2018 2.1841,0.223 V 22.554 C 10.2887,22.5328 9.43219,22.5115 8.38298,22.4903 7.33377,22.4691 6.23103,22.4585 5.07475,22.4585 c -0.92073,0 -1.82006,0.0106 -2.69797,0.0318 C 1.49887,22.5115 0.706611,22.5328 0,22.554 V 21.9169 C 0.685199,21.8744 1.1991,21.7895 1.5417,21.6621 1.8843,21.5346 2.10913,21.2798 2.21619,20.8975 2.34467,20.5152 2.4089,19.9418 2.4089,19.1773 V 3.37673 C 2.4089,2.59095 2.34467,2.01754 2.21619,1.65651 2.10913,1.27424 1.87359,1.01939 1.50958,0.891967 1.16698,0.743305 0.663787,0.658356 0,0.637119 V 0 c 0.877911,0.021237 1.80935,0.0424741 2.79433,0.0637111 0.98497,0 1.95924,0.0106185 2.9228,0.0318555 0.96356,0 1.86288,0 2.69797,0 0.83509,0 1.52028,0 2.0556,0 0.985,0 2.0984,0 3.3403,0 C 15.0744,0.0743296 16.1985,0.0424741 17.1835,0 Z m -4.7857,11.0222 c 0,0 0,0.1061 0,0.3185 0,0.2124 0,0.3186 0,0.3186 H 6.55221 c 0,0 0,-0.1062 0,-0.3186 0,-0.2124 0,-0.3185 0,-0.3185 z m 0.803,-4.20503 c -0.0857,1.21053 -0.1285,2.13435 -0.1285,2.77147 0.0214,0.63716 0.0321,1.22116 0.0321,1.75206 0,0.531 0.0107,1.115 0.0321,1.7521 0.0215,0.6371 0.075,1.5609 0.1606,2.7715 H 12.5584 C 12.4299,15.121 12.2265,14.4307 11.9482,13.7936 11.6698,13.1565 11.263,12.6468 10.7276,12.2645 10.1923,11.861 9.49643,11.6593 8.63993,11.6593 v -0.6371 c 0.64237,0 1.17769,-0.1275 1.60597,-0.3823 0.4496,-0.2761 0.8243,-0.6265 1.1241,-1.05126 0.2998,-0.44598 0.5353,-0.9132 0.7066,-1.40166 0.1713,-0.48846 0.2998,-0.94506 0.3855,-1.36981 z"
     fill="#000000"
     id="path2" />
  <path
     d="m 22.5857,22.777 c -0.9635,0 -1.7665,-0.1805 -2.4089,-0.5415 -0.6424,-0.3611 -1.1134,-0.8389 -1.4132,-1.4336 -0.2998,-0.6158 -0.4497,-1.2848 -0.4497,-2.0069 0,-0.9132 0.2034,-1.6565 0.6103,-2.2299 0.4282,-0.5734 0.9743,-1.0406 1.638,-1.4017 0.6638,-0.361 1.3597,-0.6583 2.0878,-0.8919 0.7494,-0.2336 1.456,-0.4566 2.1198,-0.669 0.6852,-0.2336 1.2312,-0.4991 1.638,-0.7964 0.4283,-0.3186 0.6424,-0.7221 0.6424,-1.2105 V 9.1108 c 0,-0.55217 -0.0963,-1.04063 -0.289,-1.46537 C 26.5899,7.19945 26.3115,6.85965 25.9261,6.62604 25.5621,6.39243 25.0803,6.27562 24.4807,6.27562 c -0.4282,0 -0.8565,0.06371 -1.2847,0.19114 -0.4283,0.10619 -0.7816,0.29732 -1.0599,0.57341 0.5995,0.21237 1.0599,0.54155 1.3811,0.98753 0.3426,0.42475 0.5139,0.9132 0.5139,1.46537 0,0.72203 -0.257,1.29553 -0.7709,1.72023 -0.4925,0.4247 -1.0813,0.6371 -1.7665,0.6371 -0.7709,0 -1.3597,-0.2336 -1.7665,-0.7008 -0.3855,-0.4885 -0.5782,-1.0725 -0.5782,-1.75209 0,-0.61588 0.1499,-1.12558 0.4497,-1.52909 0.3212,-0.40351 0.7601,-0.78578 1.3168,-1.14681 0.5996,-0.3398 1.3169,-0.60527 2.152,-0.7964 0.8565,-0.19114 1.7772,-0.28671 2.7622,-0.28671 0.985,0 1.8736,0.10619 2.6659,0.31856 0.7922,0.19114 1.456,0.55217 1.9913,1.08311 0.4925,0.48845 0.8137,1.09372 0.9636,1.81579 0.1499,0.70083 0.2248,1.59284 0.2248,2.67594 v 8.6648 c 0,0.5309 0.0535,0.9026 0.1606,1.1149 0.1071,0.1912 0.2891,0.2867 0.546,0.2867 0.1927,0 0.3747,-0.0531 0.546,-0.1592 0.1928,-0.1062 0.3962,-0.2337 0.6103,-0.3823 l 0.3212,0.5415 c -0.4497,0.3823 -0.9743,0.6796 -1.5738,0.892 -0.5782,0.1911 -1.2313,0.2867 -1.9593,0.2867 -0.7922,0 -1.4239,-0.1062 -1.895,-0.3185 -0.4711,-0.2337 -0.8137,-0.5416 -1.0278,-0.9239 -0.1927,-0.3822 -0.289,-0.8282 -0.289,-1.3379 -0.5139,0.807 -1.1349,1.4441 -1.8629,1.9113 -0.7281,0.446 -1.6167,0.669 -2.6659,0.669 z m 2.2804,-2.0388 c 0.4283,0 0.8137,-0.0955 1.1563,-0.2867 0.364,-0.2123 0.7066,-0.5521 1.0278,-1.0194 v -6.5304 c -0.1927,0.3185 -0.4603,0.6052 -0.8029,0.8601 -0.3426,0.2548 -0.7067,0.5203 -1.0921,0.7964 -0.3854,0.2548 -0.7601,0.5415 -1.1241,0.8601 -0.3426,0.3185 -0.621,0.7114 -0.8351,1.1787 -0.2142,0.4672 -0.3212,1.03 -0.3212,1.6883 0,0.8283 0.182,1.4442 0.546,1.8477 0.364,0.4035 0.8458,0.6052 1.4453,0.6052 z"
     fill="#000000"
     id="path4" />
  <path
     d="M 50.7724,5.73407 V 19.0817 c 0,0.9557 0.1499,1.6671 0.4496,2.1344 0.2998,0.446 0.8351,0.6689 1.606,0.6689 v 0.669 c -0.6638,-0.0637 -1.3276,-0.0955 -1.9914,-0.0955 -0.8993,0 -1.7344,0.0318 -2.5052,0.0955 -0.7709,0.0637 -1.4989,0.1805 -2.1841,0.3504 v -2.867 c -0.5139,1.0619 -1.2312,1.8264 -2.152,2.2936 C 43.096,22.777 42.0896,23 40.9762,23 40.0769,23 39.3488,22.8832 38.7921,22.6496 38.2354,22.416 37.7964,22.1187 37.4752,21.7576 37.1112,21.3541 36.8543,20.8232 36.7044,20.1648 36.5545,19.5065 36.4796,18.657 36.4796,17.6163 V 9.55679 c 0,-0.95568 -0.1499,-1.65651 -0.4497,-2.1025 C 35.7515,6.98707 35.2162,6.75346 34.424,6.75346 V 6.08449 c 0.6852,0.06371 1.349,0.09557 1.9913,0.09557 0.8993,0 1.7344,-0.03186 2.5053,-0.09557 0.7923,-0.08495 1.5203,-0.20176 2.1841,-0.35042 V 18.9224 c 0,0.531 0.0428,0.9982 0.1284,1.4017 0.1071,0.4035 0.2998,0.7221 0.5782,0.9557 0.2783,0.2124 0.6852,0.3185 1.2205,0.3185 0.5781,0 1.092,-0.1592 1.5417,-0.4778 0.4711,-0.3186 0.8458,-0.7539 1.1241,-1.3061 0.2998,-0.5734 0.4497,-1.2105 0.4497,-1.9114 V 9.55679 c 0,-0.95568 -0.1499,-1.65651 -0.4497,-2.1025 C 45.4193,6.98707 44.884,6.75346 44.0917,6.75346 V 6.08449 c 0.6852,0.06371 1.349,0.09557 1.9914,0.09557 0.8993,0 1.7344,-0.03186 2.5052,-0.09557 0.7923,-0.08495 1.5203,-0.20176 2.1841,-0.35042 z"
     fill="#000000"
     id="path6" />
  <path
     d="m 61.3859,6.08449 v 0.66897 c -0.4283,0 -0.7495,0.09557 -0.9636,0.28671 -0.1927,0.19113 -0.182,0.4566 0.0321,0.7964 l 8.4472,12.45563 c 0.257,0.3823 0.5246,0.7327 0.803,1.0513 0.2998,0.2973 0.6317,0.4778 0.9957,0.5415 v 0.669 c -0.3212,-0.0212 -0.8137,-0.0425 -1.4775,-0.0637 -0.6423,-0.0425 -1.2954,-0.0637 -1.9592,-0.0637 -0.7709,0 -1.5631,0.0212 -2.3768,0.0637 -0.8137,0.0212 -1.4132,0.0425 -1.7986,0.0637 v -0.669 c 0.4282,0 0.7387,-0.0955 0.9314,-0.2867 0.2141,-0.1911 0.2141,-0.4566 0,-0.7964 L 55.5724,8.34626 C 55.2084,7.81533 54.8979,7.43306 54.6409,7.19945 54.4054,6.9446 54.1163,6.79594 53.7737,6.75346 V 6.08449 c 0.364,0.02123 0.9101,0.05309 1.6381,0.09557 0.728,0.02123 1.456,0.03185 2.1841,0.03185 0.7066,0 1.4239,-0.01062 2.1519,-0.03185 0.728,-0.04248 1.274,-0.07434 1.6381,-0.09557 z m -0.7388,8.79221 c 0,0 0.0107,0.0637 0.0321,0.1912 0.0429,0.1274 0.075,0.2548 0.0964,0.3822 0.0428,0.1275 0.0642,0.1912 0.0642,0.1912 l -1.2847,1.6246 c -0.6424,0.8283 -0.9957,1.5928 -1.0599,2.2937 -0.0643,0.6796 0.1177,1.2317 0.546,1.6565 0.4282,0.4035 1.0171,0.6371 1.7665,0.7008 v 0.6371 c -0.4068,-0.0212 -0.91,-0.0318 -1.5096,-0.0318 -0.5781,-0.0213 -1.1455,-0.0319 -1.7022,-0.0319 -0.5568,-0.0212 -1.0278,-0.0318 -1.4133,-0.0318 -0.471,0 -0.8886,0.0106 -1.2526,0.0318 -0.3426,0 -0.6745,0.0212 -0.9957,0.0637 v -0.6371 c 0.4925,-0.1911 0.9636,-0.4672 1.4132,-0.8283 0.4497,-0.3822 0.9529,-0.9238 1.5096,-1.6246 z m 9.1217,-8.79221 v 0.63712 c -0.4496,0.12742 -0.9207,0.40351 -1.4132,0.82825 -0.4925,0.42475 -1.0064,0.9663 -1.5417,1.62465 l -3.533,4.39609 c 0,0 -0.0214,-0.0531 -0.0643,-0.1592 -0.0214,-0.1275 -0.0535,-0.2549 -0.0963,-0.3823 -0.0214,-0.1274 -0.0321,-0.1911 -0.0321,-0.1911 l 1.6059,-2.1344 C 65.2722,9.9603 65.6255,9.30194 65.754,8.72853 65.8825,8.15512 65.7861,7.6879 65.4649,7.32687 65.1652,6.96583 64.6299,6.76408 63.859,6.72161 V 6.08449 c 0.621,0.02123 1.2526,0.04247 1.895,0.06371 0.6424,0.02124 1.2205,0.03186 1.7344,0.03186 0.4925,0 0.9208,-0.01062 1.2848,-0.03186 0.364,-0.02124 0.6959,-0.04248 0.9956,-0.06371 z"
     fill="#000000"
     id="path8" />
  <path
     d="M 78.9096,5.59557 V 19.4529 c 0,0.892 0.1499,1.4972 0.4496,1.8158 0.3212,0.3186 0.8565,0.4778 1.606,0.4778 v 0.669 c -0.3855,-0.0212 -0.985,-0.0425 -1.7987,-0.0637 -0.8137,-0.0425 -1.638,-0.0637 -2.4731,-0.0637 -0.8351,0 -1.6809,0.0212 -2.5374,0.0637 -0.8565,0.0212 -1.4989,0.0425 -1.9271,0.0637 v -0.669 c 0.7494,0 1.274,-0.1592 1.5738,-0.4778 0.3212,-0.3186 0.4818,-0.9238 0.4818,-1.8158 V 9.41828 C 74.2845,8.4626 74.1346,7.76177 73.8348,7.31579 73.5564,6.84857 73.0211,6.61496 72.2289,6.61496 V 5.94598 c 0.6852,0.06372 1.349,0.09557 1.9913,0.09557 0.8994,0 1.7344,-0.03185 2.5053,-0.09557 0.7922,-0.08495 1.5203,-0.20175 2.1841,-0.35041 z"
     fill="#000000"
     id="path10" />
  <path
     d="m 90.7109,5.5 c 0.8351,0 1.5953,0.09557 2.2805,0.2867 0.7066,0.1699 1.2847,0.39289 1.7344,0.66898 0.5567,0.3398 0.9849,0.76454 1.2847,1.27424 0.3212,0.48845 0.4818,1.06186 0.4818,1.72022 0,0.74326 -0.2355,1.35916 -0.7066,1.84766 -0.4711,0.4672 -1.0813,0.7008 -1.8308,0.7008 -0.7494,0 -1.349,-0.2124 -1.7986,-0.6371 -0.4497,-0.4247 -0.6745,-0.9982 -0.6745,-1.72023 0,-0.67959 0.2141,-1.24238 0.6423,-1.68836 0.4283,-0.46722 0.9208,-0.77516 1.4775,-0.92382 -0.1713,-0.21238 -0.4282,-0.39289 -0.7708,-0.54155 -0.3426,-0.14867 -0.7281,-0.223 -1.1563,-0.223 -0.6638,0 -1.2526,0.19114 -1.7665,0.57341 -0.4925,0.38227 -0.9101,0.91321 -1.2527,1.5928 -0.3426,0.67959 -0.6102,1.47599 -0.8029,2.38915 -0.1713,0.9132 -0.257,1.9114 -0.257,2.9945 0,1.6353 0.2034,2.9201 0.6103,3.8546 0.4282,0.9344 0.9635,1.5928 1.6059,1.975 0.6638,0.3823 1.349,0.5735 2.0556,0.5735 0.4068,0 0.8458,-0.0638 1.3169,-0.1912 0.4925,-0.1274 0.9849,-0.3823 1.4774,-0.7645 0.5139,-0.3823 0.985,-0.9238 1.4133,-1.6247 l 0.546,0.1912 c -0.2356,0.7857 -0.621,1.5715 -1.1563,2.3573 -0.5353,0.7858 -1.2312,1.4335 -2.0877,1.9432 -0.8565,0.4885 -1.9057,0.7327 -3.1477,0.7327 -1.3918,0 -2.6551,-0.2973 -3.79,-0.892 -1.1134,-0.6159 -2.0127,-1.5503 -2.6979,-2.8033 -0.6638,-1.2742 -0.9957,-2.9095 -0.9957,-4.9058 0,-1.9114 0.3426,-3.5148 1.0278,-4.81026 0.7066,-1.31671 1.6595,-2.30425 2.8586,-2.9626 C 87.831,5.82918 89.1906,5.5 90.7109,5.5 Z"
     fill="#000000"
     id="path12" />
  <path
     d="m 102.726,22.6385 c -0.963,0 -1.766,-0.1805 -2.409,-0.5415 -0.6419,-0.3611 -1.113,-0.8389 -1.4128,-1.4336 -0.2998,-0.6158 -0.4497,-1.2848 -0.4497,-2.0069 0,-0.9132 0.2035,-1.6565 0.6103,-2.2299 0.4282,-0.5734 0.9742,-1.0406 1.6382,-1.4017 0.664,-0.361 1.36,-0.6583 2.088,-0.8919 0.749,-0.2336 1.456,-0.4566 2.119,-0.669 0.686,-0.2336 1.232,-0.4991 1.638,-0.7964 0.429,-0.3186 0.643,-0.7221 0.643,-1.2105 V 8.9723 c 0,-0.55217 -0.097,-1.04063 -0.289,-1.46538 -0.172,-0.44598 -0.45,-0.78577 -0.835,-1.01938 -0.364,-0.23362 -0.846,-0.35042 -1.446,-0.35042 -0.428,0 -0.856,0.06371 -1.284,0.19114 -0.429,0.10618 -0.782,0.29732 -1.06,0.5734 0.599,0.21238 1.06,0.54155 1.381,0.98754 0.342,0.42474 0.514,0.9132 0.514,1.46537 0,0.72203 -0.257,1.29543 -0.771,1.72023 -0.493,0.4247 -1.082,0.6371 -1.767,0.6371 -0.771,0 -1.359,-0.2336 -1.7662,-0.7008 -0.3855,-0.4885 -0.5782,-1.0725 -0.5782,-1.7521 0,-0.61588 0.1499,-1.12557 0.4497,-1.52908 0.3207,-0.40351 0.7597,-0.78578 1.3167,-1.14682 0.6,-0.33979 1.317,-0.60526 2.152,-0.7964 0.857,-0.19113 1.777,-0.2867 2.762,-0.2867 0.985,0 1.874,0.10619 2.666,0.31856 0.792,0.19113 1.456,0.55217 1.992,1.0831 0.492,0.48846 0.813,1.09372 0.963,1.81579 0.15,0.70083 0.225,1.59275 0.225,2.67595 v 8.6648 c 0,0.5309 0.053,0.9026 0.161,1.1149 0.107,0.1912 0.289,0.2867 0.546,0.2867 0.192,0 0.374,-0.0531 0.546,-0.1592 0.192,-0.1062 0.396,-0.2337 0.61,-0.3823 L 114,21.4598 c -0.45,0.3823 -0.974,0.6796 -1.574,0.892 -0.578,0.1911 -1.231,0.2867 -1.959,0.2867 -0.792,0 -1.424,-0.1062 -1.895,-0.3186 -0.471,-0.2336 -0.814,-0.5415 -1.028,-0.9238 -0.193,-0.3822 -0.289,-0.8282 -0.289,-1.3379 -0.514,0.807 -1.135,1.4441 -1.863,1.9113 -0.728,0.446 -1.616,0.669 -2.666,0.669 z m 2.281,-2.0388 c 0.428,0 0.813,-0.0955 1.156,-0.2867 0.364,-0.2124 0.707,-0.5522 1.028,-1.0194 v -6.5304 c -0.193,0.3185 -0.461,0.6052 -0.803,0.8601 -0.343,0.2548 -0.707,0.5203 -1.092,0.7964 -0.386,0.2548 -0.76,0.5415 -1.124,0.8601 -0.343,0.3185 -0.621,0.7114 -0.835,1.1787 -0.215,0.4672 -0.322,1.03 -0.322,1.6883 0,0.8283 0.182,1.4442 0.546,1.8477 0.364,0.4035 0.846,0.6052 1.446,0.6052 z"
     fill="#000000"
     id="path14" />
  <path
     d="m 2,30.7876 c 0.14803,0.0069 0.34188,0.0138 0.58155,0.0207 0.23967,0.0069 0.47581,0.0104 0.70843,0.0104 0.33131,0 0.64852,-0.0035 0.95163,-0.0104 0.30311,-0.0069 0.51811,-0.0104 0.64499,-0.0104 0.85294,0 1.49089,0.19 1.91383,0.57 0.42295,0.3799 0.63442,0.8704 0.63442,1.4715 0,0.2487 -0.04229,0.5112 -0.12688,0.7875 -0.08459,0.2695 -0.23262,0.5216 -0.4441,0.7565 -0.20442,0.228 -0.48638,0.4145 -0.84589,0.5596 -0.3595,0.1451 -0.81417,0.2176 -1.364,0.2176 H 3.63891 v -0.2072 h 0.90934 c 0.50048,0 0.88113,-0.0933 1.14195,-0.2798 0.26787,-0.1866 0.44762,-0.4318 0.53925,-0.7358 0.09869,-0.3039 0.14804,-0.6321 0.14804,-0.9844 0,-0.6563 -0.13394,-1.1468 -0.4018,-1.4715 -0.26082,-0.3247 -0.71196,-0.4871 -1.35343,-0.4871 -0.32426,0 -0.53573,0.0587 -0.63442,0.1762 -0.09868,0.1174 -0.14803,0.3558 -0.14803,0.715 v 5.1399 c 0,0.2487 0.02467,0.4352 0.07402,0.5596 0.05639,0.1243 0.16213,0.2072 0.31721,0.2487 0.15508,0.0414 0.38065,0.0691 0.67671,0.0829 v 0.2073 C 4.72447,38.1105 4.49185,38.1036 4.20989,38.1036 3.92793,38.0967 3.64244,38.0933 3.35343,38.0933 c -0.27492,0 -0.53221,0.0034 -0.77188,0.0103 -0.23967,0 -0.43352,0.0069 -0.58155,0.0208 v -0.2073 c 0.23967,-0.0138 0.41942,-0.0415 0.53926,-0.0829 0.12688,-0.0415 0.21147,-0.1244 0.25376,-0.2487 0.0423,-0.1244 0.06344,-0.3109 0.06344,-0.5596 V 31.886 c 0,-0.2556 -0.02114,-0.4421 -0.06344,-0.5596 C 2.75073,31.2021 2.66614,31.1192 2.53926,31.0777 2.41942,31.0294 2.23967,31.0017 2,30.9948 Z"
     fill="#000000"
     id="path16" />
  <path
     d="m 11.3361,32.6425 c 0.1903,0 0.356,0.038 0.497,0.114 0.148,0.076 0.2608,0.1761 0.3383,0.3005 0.0846,0.1174 0.1269,0.2522 0.1269,0.4041 0,0.1728 -0.0564,0.3247 -0.1692,0.456 -0.1057,0.1313 -0.2502,0.1969 -0.4335,0.1969 -0.148,0 -0.2784,-0.0449 -0.3912,-0.1347 -0.1128,-0.0967 -0.1692,-0.2315 -0.1692,-0.4042 0,-0.1312 0.0353,-0.2418 0.1057,-0.3316 0.0776,-0.0967 0.1622,-0.1727 0.2538,-0.228 -0.0493,-0.069 -0.1233,-0.1036 -0.222,-0.1036 -0.2186,0 -0.4195,0.0656 -0.6027,0.1969 -0.1833,0.1244 -0.3384,0.2867 -0.4653,0.4871 -0.1269,0.2003 -0.22554,0.4145 -0.29603,0.6424 -0.07049,0.2211 -0.10574,0.4284 -0.10574,0.6218 v 2.1969 c 0,0.3385 0.09869,0.5665 0.29607,0.6839 0.2044,0.1106 0.4793,0.1658 0.8247,0.1658 v 0.2177 c -0.1621,-0.007 -0.3912,-0.0139 -0.6872,-0.0208 -0.29611,-0.0138 -0.6098,-0.0207 -0.9411,-0.0207 -0.23967,0 -0.47934,0.0069 -0.71901,0.0207 -0.23262,0.0069 -0.40885,0.0138 -0.52868,0.0208 v -0.2177 c 0.28901,0 0.49343,-0.0518 0.61327,-0.1554 0.12688,-0.1036 0.19032,-0.3005 0.19032,-0.5907 v -3.2435 c 0,-0.3109 -0.05639,-0.5389 -0.16917,-0.6839 -0.11279,-0.152 -0.32426,-0.228 -0.63442,-0.228 v -0.2176 c 0.22557,0.0207 0.44409,0.0311 0.65556,0.0311 0.20443,0 0.39828,-0.0104 0.58155,-0.0311 0.19033,-0.0277 0.36303,-0.0657 0.51811,-0.114 v 1.2953 c 0.07754,-0.2003 0.1868,-0.4007 0.32777,-0.601 0.148,-0.2073 0.3243,-0.38 0.5287,-0.5182 0.2044,-0.1381 0.43,-0.2072 0.6767,-0.2072 z"
     fill="#000000"
     id="path18" />
  <path
     d="m 15.1192,32.6425 c 0.6203,0 1.1031,0.1865 1.4485,0.5596 0.3525,0.3661 0.5287,0.9395 0.5287,1.7202 h -3.7325 l -0.0105,-0.1969 h 2.728 c 0.0141,-0.3385 -0.0141,-0.6494 -0.0846,-0.9327 -0.0705,-0.2901 -0.1833,-0.5215 -0.3384,-0.6943 -0.148,-0.1727 -0.3419,-0.259 -0.5815,-0.259 -0.3243,0 -0.6133,0.1589 -0.8671,0.4767 -0.2467,0.3178 -0.3947,0.8221 -0.4441,1.5129 l 0.0318,0.0415 c -0.0141,0.1036 -0.0247,0.2176 -0.0318,0.3419 -0.007,0.1244 -0.0105,0.2487 -0.0105,0.3731 0,0.4698 0.0775,0.8739 0.2326,1.2124 0.1551,0.3385 0.356,0.5976 0.6027,0.7772 0.2537,0.1727 0.5146,0.2591 0.7824,0.2591 0.2115,0 0.4124,-0.0311 0.6027,-0.0933 0.1903,-0.0691 0.3666,-0.1796 0.5287,-0.3316 0.1621,-0.152 0.3031,-0.3558 0.4229,-0.6114 l 0.2115,0.0829 c -0.0775,0.228 -0.2044,0.4491 -0.3806,0.6632 -0.1763,0.2142 -0.3983,0.3904 -0.6662,0.5285 -0.2678,0.1313 -0.578,0.1969 -0.9304,0.1969 -0.5076,0 -0.9446,-0.114 -1.3112,-0.3419 -0.3595,-0.228 -0.6379,-0.5424 -0.8353,-0.943 -0.1903,-0.4076 -0.2855,-0.874 -0.2855,-1.399 0,-0.608 0.0987,-1.1295 0.2961,-1.5648 0.1974,-0.4421 0.4758,-0.7806 0.8353,-1.0155 0.3595,-0.2418 0.7789,-0.3627 1.2583,-0.3627 z"
     fill="#000000"
     id="path20" />
  <path
     d="m 21.3878,32.6425 c 0.2468,0 0.4618,0.0345 0.645,0.1036 0.1833,0.0691 0.3349,0.1658 0.4547,0.2902 0.1339,0.1381 0.2256,0.3178 0.2749,0.5388 0.0494,0.2211 0.074,0.494 0.074,0.8187 v 2.7668 c 0,0.2902 0.0599,0.4871 0.1798,0.5907 0.1269,0.1036 0.3348,0.1554 0.6238,0.1554 v 0.2177 c -0.1198,-0.007 -0.3031,-0.0139 -0.5498,-0.0208 -0.2467,-0.0138 -0.4864,-0.0207 -0.719,-0.0207 -0.2326,0 -0.4617,0.0069 -0.6873,0.0207 -0.2185,0.0069 -0.3842,0.0138 -0.497,0.0208 v -0.2177 c 0.2538,0 0.4336,-0.0518 0.5393,-0.1554 0.1057,-0.1036 0.1586,-0.3005 0.1586,-0.5907 v -2.9948 c 0,-0.2142 -0.0141,-0.4111 -0.0423,-0.5907 -0.0282,-0.1796 -0.0987,-0.3247 -0.2115,-0.4352 -0.1128,-0.1105 -0.296,-0.1658 -0.5498,-0.1658 -0.2749,0 -0.5216,0.0829 -0.7402,0.2487 -0.2114,0.1658 -0.3806,0.3938 -0.5075,0.6839 -0.1198,0.2833 -0.1797,0.6011 -0.1797,0.9534 v 2.3005 c 0,0.2902 0.0528,0.4871 0.1586,0.5907 0.1057,0.1036 0.2855,0.1554 0.5392,0.1554 v 0.2177 c -0.1128,-0.007 -0.2819,-0.0139 -0.5075,-0.0208 -0.2185,-0.0138 -0.4441,-0.0207 -0.6767,-0.0207 -0.2326,0 -0.4723,0.0069 -0.719,0.0207 -0.2468,0.0069 -0.43,0.0138 -0.5499,0.0208 v -0.2177 c 0.2891,0 0.4935,-0.0518 0.6133,-0.1554 0.1269,-0.1036 0.1903,-0.3005 0.1903,-0.5907 v -3.2435 c 0,-0.3109 -0.0564,-0.5389 -0.1691,-0.6839 -0.1128,-0.152 -0.3243,-0.228 -0.6345,-0.228 v -0.2176 c 0.2256,0.0207 0.4441,0.0311 0.6556,0.0311 0.2044,0 0.3983,-0.0104 0.5816,-0.0311 0.1903,-0.0277 0.363,-0.0657 0.5181,-0.114 v 1.2228 c 0.1832,-0.4491 0.4335,-0.7703 0.7507,-0.9638 0.3172,-0.1934 0.645,-0.2901 0.9833,-0.2901 z m 3.1827,0 c 0.2467,0 0.4617,0.0345 0.645,0.1036 0.1833,0.0691 0.3348,0.1658 0.4547,0.2902 0.1339,0.1381 0.2255,0.3178 0.2749,0.5388 0.0493,0.2211 0.074,0.494 0.074,0.8187 v 2.7668 c 0,0.2902 0.0599,0.4871 0.1797,0.5907 0.1269,0.1036 0.3349,0.1554 0.6239,0.1554 v 0.2177 c -0.1198,-0.007 -0.3031,-0.0139 -0.5498,-0.0208 -0.2468,-0.0138 -0.4864,-0.0207 -0.719,-0.0207 -0.2327,0 -0.4618,0.0069 -0.6873,0.0207 -0.2186,0.0069 -0.3842,0.0138 -0.497,0.0208 v -0.2177 c 0.2538,0 0.4335,-0.0518 0.5393,-0.1554 0.1057,-0.1036 0.1586,-0.3005 0.1586,-0.5907 v -2.9948 c 0,-0.2142 -0.0141,-0.4111 -0.0423,-0.5907 -0.0282,-0.1796 -0.0987,-0.3247 -0.2115,-0.4352 -0.1128,-0.1105 -0.2961,-0.1658 -0.5498,-0.1658 -0.2749,0 -0.5217,0.0829 -0.7402,0.2487 -0.2115,0.1658 -0.3806,0.3903 -0.5075,0.6736 -0.1199,0.2832 -0.1798,0.601 -0.1798,0.9533 L 22.8047,33.886 c 0.1903,-0.4767 0.4476,-0.8014 0.7719,-0.9741 0.3242,-0.1796 0.6555,-0.2694 0.9939,-0.2694 z"
     fill="#000000"
     id="path22" />
  <path
     d="m 28.4901,30.1969 c 0.1833,0 0.3419,0.0656 0.4758,0.1969 0.1339,0.1312 0.2009,0.2867 0.2009,0.4663 0,0.1796 -0.067,0.3351 -0.2009,0.4663 -0.1339,0.1313 -0.2925,0.1969 -0.4758,0.1969 -0.1833,0 -0.3419,-0.0656 -0.4758,-0.1969 -0.1339,-0.1312 -0.2009,-0.2867 -0.2009,-0.4663 0,-0.1796 0.067,-0.3351 0.2009,-0.4663 0.1339,-0.1313 0.2925,-0.1969 0.4758,-0.1969 z m 0.5498,2.4767 v 4.487 c 0,0.2902 0.0599,0.4871 0.1798,0.5907 0.1269,0.1036 0.3348,0.1554 0.6238,0.1554 v 0.2177 c -0.1198,-0.007 -0.3031,-0.0139 -0.5498,-0.0208 -0.2397,-0.0138 -0.4829,-0.0207 -0.7296,-0.0207 -0.2397,0 -0.4828,0.0069 -0.7296,0.0207 -0.2467,0.0069 -0.43,0.0138 -0.5498,0.0208 v -0.2177 c 0.289,0 0.4934,-0.0518 0.6133,-0.1554 0.1269,-0.1036 0.1903,-0.3005 0.1903,-0.5907 v -3.2435 c 0,-0.3109 -0.0564,-0.5389 -0.1692,-0.6839 -0.1128,-0.152 -0.3242,-0.228 -0.6344,-0.228 v -0.2176 c 0.2256,0.0207 0.4441,0.0311 0.6556,0.0311 0.2044,0 0.3982,-0.0104 0.5815,-0.0311 0.1903,-0.0277 0.363,-0.0657 0.5181,-0.114 z"
     fill="#000000"
     id="path24" />
  <path
     d="m 35.1829,32.6736 v 4.3316 c 0,0.3109 0.0564,0.5423 0.1692,0.6943 0.1198,0.1451 0.3313,0.2176 0.6344,0.2176 v 0.2176 c -0.2185,-0.0207 -0.4371,-0.0311 -0.6556,-0.0311 -0.2044,0 -0.4018,0.0104 -0.5921,0.0311 -0.1833,0.0207 -0.3525,0.0587 -0.5075,0.114 v -1.2228 c -0.1763,0.4491 -0.4265,0.7703 -0.7508,0.9637 -0.3172,0.1866 -0.645,0.2798 -0.9833,0.2798 -0.2467,0 -0.4617,-0.0345 -0.645,-0.1036 C 31.6689,38.0967 31.5174,38 31.3975,37.8756 c -0.1339,-0.1381 -0.2256,-0.3177 -0.2749,-0.5388 -0.0493,-0.2211 -0.074,-0.494 -0.074,-0.8187 v -2.601 c 0,-0.3109 -0.0564,-0.5389 -0.1692,-0.6839 -0.1128,-0.152 -0.3242,-0.228 -0.6344,-0.228 v -0.2176 c 0.2256,0.0207 0.4441,0.0311 0.6556,0.0311 0.2044,0 0.3982,-0.0104 0.5815,-0.0311 0.1903,-0.0277 0.363,-0.0657 0.5181,-0.114 v 4.0725 c 0,0.2142 0.0141,0.4111 0.0423,0.5907 0.0282,0.1796 0.0987,0.3247 0.2115,0.4352 0.1128,0.1106 0.296,0.1658 0.5498,0.1658 0.2749,0 0.5181,-0.0829 0.7296,-0.2487 0.2185,-0.1658 0.3877,-0.3903 0.5075,-0.6736 0.1269,-0.2832 0.1904,-0.601 0.1904,-0.9533 v -2.1451 c 0,-0.3109 -0.0564,-0.5389 -0.1692,-0.6839 -0.1128,-0.152 -0.3243,-0.228 -0.6344,-0.228 v -0.2176 c 0.2255,0.0207 0.4441,0.0311 0.6555,0.0311 0.2044,0 0.3983,-0.0104 0.5816,-0.0311 0.1903,-0.0277 0.363,-0.0657 0.5181,-0.114 z"
     fill="#000000"
     id="path26" />
  <path
     d="m 40.0156,32.6425 c 0.2467,0 0.4617,0.0345 0.645,0.1036 0.1833,0.0691 0.3348,0.1658 0.4547,0.2902 0.1339,0.1381 0.2255,0.3178 0.2749,0.5388 0.0493,0.2211 0.074,0.494 0.074,0.8187 v 2.7668 c 0,0.2902 0.0599,0.4871 0.1798,0.5907 0.1268,0.1036 0.3348,0.1554 0.6238,0.1554 v 0.2177 c -0.1198,-0.007 -0.3031,-0.0139 -0.5498,-0.0208 -0.2467,-0.0138 -0.4864,-0.0207 -0.719,-0.0207 -0.2327,0 -0.4618,0.0069 -0.6873,0.0207 -0.2185,0.0069 -0.3842,0.0138 -0.497,0.0208 v -0.2177 c 0.2538,0 0.4335,-0.0518 0.5393,-0.1554 0.1057,-0.1036 0.1586,-0.3005 0.1586,-0.5907 v -2.9948 c 0,-0.2142 -0.0141,-0.4111 -0.0423,-0.5907 -0.0282,-0.1796 -0.0987,-0.3247 -0.2115,-0.4352 -0.1128,-0.1105 -0.2961,-0.1658 -0.5498,-0.1658 -0.2749,0 -0.5217,0.0829 -0.7402,0.2487 -0.2115,0.1658 -0.3806,0.3938 -0.5075,0.6839 -0.1198,0.2833 -0.1798,0.6011 -0.1798,0.9534 v 2.3005 c 0,0.2902 0.0529,0.4871 0.1586,0.5907 0.1058,0.1036 0.2855,0.1554 0.5393,0.1554 v 0.2177 c -0.1128,-0.007 -0.282,-0.0139 -0.5075,-0.0208 -0.2186,-0.0138 -0.4441,-0.0207 -0.6768,-0.0207 -0.2326,0 -0.4722,0.0069 -0.719,0.0207 -0.2467,0.0069 -0.43,0.0138 -0.5498,0.0208 v -0.2177 c 0.289,0 0.4934,-0.0518 0.6133,-0.1554 0.1269,-0.1036 0.1903,-0.3005 0.1903,-0.5907 v -3.2435 c 0,-0.3109 -0.0564,-0.5389 -0.1692,-0.6839 -0.1128,-0.152 -0.3242,-0.228 -0.6344,-0.228 v -0.2176 c 0.2256,0.0207 0.4441,0.0311 0.6556,0.0311 0.2044,0 0.3983,-0.0104 0.5815,-0.0311 0.1904,-0.0277 0.3631,-0.0657 0.5181,-0.114 v 1.2228 c 0.1833,-0.4491 0.4336,-0.7703 0.7508,-0.9638 0.3172,-0.1934 0.645,-0.2901 0.9833,-0.2901 z m 3.1827,0 c 0.2467,0 0.4617,0.0345 0.645,0.1036 0.1832,0.0691 0.3348,0.1658 0.4546,0.2902 0.134,0.1381 0.2256,0.3178 0.2749,0.5388 0.0494,0.2211 0.0741,0.494 0.0741,0.8187 v 2.7668 c 0,0.2902 0.0599,0.4871 0.1797,0.5907 0.1269,0.1036 0.3348,0.1554 0.6239,0.1554 v 0.2177 c -0.1199,-0.007 -0.3031,-0.0139 -0.5499,-0.0208 -0.2467,-0.0138 -0.4864,-0.0207 -0.719,-0.0207 -0.2326,0 -0.4617,0.0069 -0.6873,0.0207 -0.2185,0.0069 -0.3841,0.0138 -0.4969,0.0208 v -0.2177 c 0.2537,0 0.4335,-0.0518 0.5392,-0.1554 0.1058,-0.1036 0.1586,-0.3005 0.1586,-0.5907 v -2.9948 c 0,-0.2142 -0.0141,-0.4111 -0.0423,-0.5907 -0.0282,-0.1796 -0.0986,-0.3247 -0.2114,-0.4352 -0.1128,-0.1105 -0.2961,-0.1658 -0.5499,-0.1658 -0.2749,0 -0.5216,0.0829 -0.7401,0.2487 -0.2115,0.1658 -0.3807,0.3903 -0.5075,0.6736 -0.1199,0.2832 -0.1798,0.601 -0.1798,0.9533 L 41.4325,33.886 c 0.1903,-0.4767 0.4476,-0.8014 0.7719,-0.9741 0.3242,-0.1796 0.6555,-0.2694 0.9939,-0.2694 z"
     fill="#000000"
     id="path28" />
  <path
     d="m 51.2928,30.7358 2.58,6.5181 c 0.1057,0.2625 0.2255,0.4387 0.3595,0.5285 0.1339,0.0829 0.2573,0.1278 0.3701,0.1347 v 0.2073 c -0.141,-0.0139 -0.3137,-0.0208 -0.5182,-0.0208 -0.2044,-0.0069 -0.4088,-0.0103 -0.6132,-0.0103 -0.2749,0 -0.5322,0.0034 -0.7719,0.0103 -0.2397,0 -0.4335,0.0069 -0.5815,0.0208 v -0.2073 c 0.3595,-0.0138 0.5886,-0.0725 0.6872,-0.1762 0.0987,-0.1105 0.0776,-0.3419 -0.0634,-0.6943 l -1.9667,-5.1502 0.1692,-0.1347 -1.8398,4.6839 c -0.1128,0.2763 -0.1798,0.5112 -0.2009,0.7047 -0.0212,0.1865 -0.0036,0.335 0.0528,0.4456 0.0635,0.1105 0.1657,0.1899 0.3067,0.2383 0.148,0.0484 0.3313,0.076 0.5498,0.0829 v 0.2073 c -0.1974,-0.0139 -0.4053,-0.0208 -0.6238,-0.0208 -0.2115,-0.0069 -0.4089,-0.0103 -0.5922,-0.0103 -0.1762,0 -0.3278,0.0034 -0.4546,0.0103 -0.1199,0 -0.2327,0.0069 -0.3384,0.0208 v -0.2073 c 0.141,-0.0345 0.2855,-0.114 0.4335,-0.2383 0.1481,-0.1313 0.282,-0.3524 0.4018,-0.6633 l 2.4848,-6.2797 c 0.0282,0 0.0564,0 0.0846,0 0.0282,0 0.0564,0 0.0846,0 z m 1.29,4.4041 v 0.2073 h -3.151 l 0.1058,-0.2073 z"
     fill="#000000"
     id="path30" />
  <path
     d="m 56.5255,32.6736 v 6.3627 c 0,0.297 0.0881,0.4939 0.2644,0.5906 0.1832,0.1037 0.4335,0.1555 0.7507,0.1555 V 40 c -0.1551,-0.0069 -0.3701,-0.0173 -0.645,-0.0311 -0.2749,-0.0069 -0.5675,-0.0104 -0.8776,-0.0104 -0.2185,0 -0.4371,0.0035 -0.6556,0.0104 C 55.1509,39.9827 54.9888,39.9931 54.876,40 v -0.2176 c 0.2538,0 0.4336,-0.0449 0.5393,-0.1347 0.1057,-0.0898 0.1586,-0.2591 0.1586,-0.5078 v -5.2228 c 0,-0.3109 -0.0564,-0.5389 -0.1692,-0.6839 -0.1128,-0.152 -0.3242,-0.228 -0.6344,-0.228 v -0.2176 c 0.2256,0.0207 0.4441,0.0311 0.6556,0.0311 0.2044,0 0.3982,-0.0104 0.5815,-0.0311 0.1903,-0.0277 0.363,-0.0657 0.5181,-0.114 z m 1.6918,-0.0311 c 0.3736,0 0.7084,0.1002 1.0045,0.3005 0.2961,0.1934 0.5287,0.4801 0.6979,0.8601 0.1762,0.38 0.2643,0.8498 0.2643,1.4093 0,0.3731 -0.0458,0.7427 -0.1375,1.1088 -0.0916,0.3593 -0.2361,0.6874 -0.4335,0.9845 -0.1903,0.2902 -0.4405,0.525 -0.7507,0.7047 -0.3031,0.1727 -0.6697,0.259 -1.0997,0.259 -0.3313,0 -0.6203,-0.076 -0.867,-0.2279 -0.2397,-0.152 -0.4018,-0.3351 -0.4864,-0.5493 l 0.1057,-0.145 c 0.0987,0.1934 0.2397,0.3557 0.423,0.487 0.1903,0.1313 0.4265,0.1969 0.7084,0.1969 0.3948,0 0.7014,-0.1209 0.9199,-0.3627 0.2186,-0.2418 0.3701,-0.563 0.4547,-0.9637 0.0916,-0.4076 0.1375,-0.8567 0.1375,-1.3472 0,-0.5527 -0.0459,-1.0052 -0.1375,-1.3575 -0.0916,-0.3523 -0.2291,-0.6149 -0.4124,-0.7876 -0.1832,-0.1727 -0.4088,-0.259 -0.6767,-0.259 -0.3454,0 -0.6591,0.1416 -0.941,0.4248 -0.282,0.2764 -0.4618,0.6978 -0.5393,1.2643 l -0.1269,-0.1451 c 0.0776,-0.5872 0.289,-1.0432 0.6344,-1.3679 0.3525,-0.3247 0.7719,-0.487 1.2583,-0.487 z"
     fill="#000000"
     id="path32" />
  <path
     d="m 62.6694,32.6736 v 6.3627 c 0,0.297 0.0881,0.4939 0.2643,0.5906 0.1833,0.1037 0.4335,0.1555 0.7508,0.1555 V 40 c -0.1551,-0.0069 -0.3701,-0.0173 -0.645,-0.0311 -0.275,-0.0069 -0.5675,-0.0104 -0.8777,-0.0104 -0.2185,0 -0.437,0.0035 -0.6555,0.0104 -0.2115,0.0138 -0.3736,0.0242 -0.4864,0.0311 v -0.2176 c 0.2538,0 0.4335,-0.0449 0.5392,-0.1347 0.1058,-0.0898 0.1587,-0.2591 0.1587,-0.5078 v -5.2228 c 0,-0.3109 -0.0564,-0.5389 -0.1692,-0.6839 -0.1128,-0.152 -0.3243,-0.228 -0.6344,-0.228 v -0.2176 c 0.2255,0.0207 0.444,0.0311 0.6555,0.0311 0.2044,0 0.3983,-0.0104 0.5816,-0.0311 0.1903,-0.0277 0.363,-0.0657 0.5181,-0.114 z m 1.6918,-0.0311 c 0.3736,0 0.7084,0.1002 1.0045,0.3005 0.296,0.1934 0.5286,0.4801 0.6978,0.8601 0.1762,0.38 0.2644,0.8498 0.2644,1.4093 0,0.3731 -0.0459,0.7427 -0.1375,1.1088 -0.0916,0.3593 -0.2361,0.6874 -0.4335,0.9845 -0.1903,0.2902 -0.4406,0.525 -0.7507,0.7047 -0.3032,0.1727 -0.6697,0.259 -1.0997,0.259 -0.3313,0 -0.6203,-0.076 -0.867,-0.2279 -0.2397,-0.152 -0.4018,-0.3351 -0.4864,-0.5493 l 0.1057,-0.145 c 0.0987,0.1934 0.2397,0.3557 0.423,0.487 0.1903,0.1313 0.4264,0.1969 0.7084,0.1969 0.3947,0 0.7014,-0.1209 0.9199,-0.3627 0.2185,-0.2418 0.3701,-0.563 0.4547,-0.9637 0.0916,-0.4076 0.1374,-0.8567 0.1374,-1.3472 0,-0.5527 -0.0458,-1.0052 -0.1374,-1.3575 -0.0917,-0.3523 -0.2291,-0.6149 -0.4124,-0.7876 -0.1833,-0.1727 -0.4089,-0.259 -0.6767,-0.259 -0.3454,0 -0.6591,0.1416 -0.9411,0.4248 -0.2819,0.2764 -0.4617,0.6978 -0.5392,1.2643 l -0.1269,-0.1451 c 0.0775,-0.5872 0.289,-1.0432 0.6344,-1.3679 0.3525,-0.3247 0.7719,-0.487 1.2583,-0.487 z"
     fill="#000000"
     id="path34" />
  <path
     d="m 68.6335,38.1969 c -0.289,0 -0.5393,-0.0518 -0.7507,-0.1554 -0.2115,-0.1106 -0.3736,-0.2626 -0.4864,-0.456 -0.1058,-0.1934 -0.1586,-0.418 -0.1586,-0.6736 0,-0.304 0.0705,-0.5527 0.2114,-0.7461 0.1481,-0.1934 0.3349,-0.3489 0.5604,-0.4663 0.2256,-0.1175 0.4618,-0.2142 0.7085,-0.2902 0.2537,-0.0829 0.4934,-0.1589 0.719,-0.228 0.2256,-0.0759 0.4088,-0.1623 0.5498,-0.259 0.148,-0.0967 0.2221,-0.2245 0.2221,-0.3834 v -0.6425 c 0,-0.2902 -0.0459,-0.5113 -0.1375,-0.6632 -0.0846,-0.152 -0.2009,-0.2522 -0.3489,-0.3006 -0.1481,-0.0552 -0.3137,-0.0829 -0.497,-0.0829 -0.1762,0 -0.3665,0.0242 -0.571,0.0726 -0.1973,0.0483 -0.3559,0.1485 -0.4758,0.3005 0.134,0.0276 0.2503,0.0967 0.349,0.2073 0.0986,0.1105 0.148,0.2521 0.148,0.4248 0,0.1727 -0.0564,0.3109 -0.1692,0.4145 -0.1128,0.0967 -0.2573,0.1451 -0.4335,0.1451 -0.2044,0 -0.356,-0.0622 -0.4547,-0.1865 -0.0916,-0.1313 -0.1374,-0.2764 -0.1374,-0.4353 0,-0.1796 0.0458,-0.3247 0.1374,-0.4352 0.0917,-0.1105 0.208,-0.2141 0.349,-0.3109 0.1621,-0.1105 0.37,-0.2038 0.6238,-0.2798 0.2608,-0.0829 0.5534,-0.1243 0.8776,-0.1243 0.289,0 0.5357,0.0345 0.7402,0.1036 0.2044,0.0622 0.3736,0.1555 0.5075,0.2798 0.1833,0.1658 0.3031,0.3696 0.3595,0.6114 0.0564,0.2349 0.0846,0.5181 0.0846,0.8497 v 2.8809 c 0,0.1727 0.0247,0.297 0.074,0.373 0.0564,0.076 0.141,0.114 0.2538,0.114 0.0775,0 0.1515,-0.0172 0.222,-0.0518 0.0705,-0.0345 0.1551,-0.0898 0.2538,-0.1658 l 0.1163,0.1762 c -0.148,0.1105 -0.289,0.2038 -0.4229,0.2798 -0.134,0.069 -0.3137,0.1036 -0.5393,0.1036 -0.2044,0 -0.3736,-0.0346 -0.5075,-0.1036 -0.134,-0.0691 -0.2362,-0.1693 -0.3067,-0.3006 -0.0634,-0.1381 -0.0951,-0.3108 -0.0951,-0.5181 -0.1904,0.3109 -0.4195,0.5423 -0.6873,0.6943 -0.2608,0.152 -0.5569,0.228 -0.8882,0.228 z m 0.3806,-0.4145 c 0.2327,0 0.4477,-0.0656 0.645,-0.1969 0.2045,-0.1313 0.3877,-0.3282 0.5499,-0.5907 v -2.0311 c -0.0846,0.1175 -0.208,0.2176 -0.3701,0.3005 -0.1621,0.076 -0.3384,0.1555 -0.5287,0.2384 -0.1903,0.076 -0.3736,0.1692 -0.5498,0.2798 -0.1692,0.1036 -0.3102,0.2418 -0.423,0.4145 -0.1128,0.1727 -0.1691,0.3972 -0.1691,0.6736 0,0.2763 0.074,0.4974 0.222,0.6632 0.1551,0.1658 0.363,0.2487 0.6238,0.2487 z"
     fill="#000000"
     id="path36" />
  <path
     d="m 75.6866,32.6425 c 0.1903,0 0.356,0.038 0.497,0.114 0.148,0.076 0.2608,0.1761 0.3383,0.3005 0.0846,0.1174 0.1269,0.2522 0.1269,0.4041 0,0.1728 -0.0564,0.3247 -0.1692,0.456 -0.1057,0.1313 -0.2502,0.1969 -0.4335,0.1969 -0.148,0 -0.2784,-0.0449 -0.3912,-0.1347 -0.1128,-0.0967 -0.1692,-0.2315 -0.1692,-0.4042 0,-0.1312 0.0353,-0.2418 0.1057,-0.3316 0.0776,-0.0967 0.1622,-0.1727 0.2538,-0.228 -0.0493,-0.069 -0.1234,-0.1036 -0.222,-0.1036 -0.2186,0 -0.4195,0.0656 -0.6027,0.1969 -0.1833,0.1244 -0.3384,0.2867 -0.4653,0.4871 -0.1269,0.2003 -0.2255,0.4145 -0.296,0.6424 -0.0705,0.2211 -0.1058,0.4284 -0.1058,0.6218 v 2.1969 c 0,0.3385 0.0987,0.5665 0.2961,0.6839 0.2044,0.1106 0.4793,0.1658 0.8247,0.1658 v 0.2177 c -0.1621,-0.007 -0.3912,-0.0139 -0.6873,-0.0208 -0.296,-0.0138 -0.6097,-0.0207 -0.941,-0.0207 -0.2397,0 -0.4793,0.0069 -0.719,0.0207 -0.2326,0.0069 -0.4089,0.0138 -0.5287,0.0208 v -0.2177 c 0.289,0 0.4934,-0.0518 0.6133,-0.1554 0.1269,-0.1036 0.1903,-0.3005 0.1903,-0.5907 v -3.2435 c 0,-0.3109 -0.0564,-0.5389 -0.1692,-0.6839 -0.1128,-0.152 -0.3242,-0.228 -0.6344,-0.228 v -0.2176 c 0.2256,0.0207 0.4441,0.0311 0.6556,0.0311 0.2044,0 0.3982,-0.0104 0.5815,-0.0311 0.1903,-0.0277 0.363,-0.0657 0.5181,-0.114 v 1.2953 c 0.0776,-0.2003 0.1868,-0.4007 0.3278,-0.601 0.148,-0.2073 0.3243,-0.38 0.5287,-0.5182 0.2044,-0.1381 0.43,-0.2072 0.6767,-0.2072 z"
     fill="#000000"
     id="path38" />
  <path
     d="m 79.4697,32.6425 c 0.6203,0 1.1031,0.1865 1.4485,0.5596 0.3525,0.3661 0.5287,0.9395 0.5287,1.7202 h -3.7325 l -0.0105,-0.1969 h 2.728 c 0.0141,-0.3385 -0.0141,-0.6494 -0.0846,-0.9327 -0.0705,-0.2901 -0.1833,-0.5215 -0.3384,-0.6943 -0.148,-0.1727 -0.3419,-0.259 -0.5815,-0.259 -0.3243,0 -0.6133,0.1589 -0.8671,0.4767 -0.2467,0.3178 -0.3947,0.8221 -0.4441,1.5129 l 0.0317,0.0415 c -0.0141,0.1036 -0.0246,0.2176 -0.0317,0.3419 -0.007,0.1244 -0.0106,0.2487 -0.0106,0.3731 0,0.4698 0.0776,0.8739 0.2327,1.2124 0.1551,0.3385 0.356,0.5976 0.6027,0.7772 0.2537,0.1727 0.5146,0.2591 0.7824,0.2591 0.2115,0 0.4124,-0.0311 0.6027,-0.0933 0.1903,-0.0691 0.3666,-0.1796 0.5287,-0.3316 0.1621,-0.152 0.3031,-0.3558 0.4229,-0.6114 l 0.2115,0.0829 c -0.0775,0.228 -0.2044,0.4491 -0.3806,0.6632 -0.1763,0.2142 -0.3983,0.3904 -0.6662,0.5285 -0.2678,0.1313 -0.578,0.1969 -0.9305,0.1969 -0.5075,0 -0.9445,-0.114 -1.3111,-0.3419 -0.3595,-0.228 -0.6379,-0.5424 -0.8353,-0.943 -0.1903,-0.4076 -0.2855,-0.874 -0.2855,-1.399 0,-0.608 0.0987,-1.1295 0.2961,-1.5648 0.1973,-0.4421 0.4758,-0.7806 0.8353,-1.0155 0.3595,-0.2418 0.7789,-0.3627 1.2583,-0.3627 z"
     fill="#000000"
     id="path40" />
  <path
     d="m 83.7505,38.1969 c -0.289,0 -0.5393,-0.0518 -0.7507,-0.1554 -0.2115,-0.1106 -0.3736,-0.2626 -0.4864,-0.456 -0.1058,-0.1934 -0.1586,-0.418 -0.1586,-0.6736 0,-0.304 0.0705,-0.5527 0.2114,-0.7461 0.1481,-0.1934 0.3349,-0.3489 0.5604,-0.4663 0.2256,-0.1175 0.4618,-0.2142 0.7085,-0.2902 0.2537,-0.0829 0.4934,-0.1589 0.719,-0.228 0.2256,-0.0759 0.4088,-0.1623 0.5498,-0.259 0.148,-0.0967 0.2221,-0.2245 0.2221,-0.3834 v -0.6425 c 0,-0.2902 -0.0459,-0.5113 -0.1375,-0.6632 -0.0846,-0.152 -0.2009,-0.2522 -0.3489,-0.3006 -0.1481,-0.0552 -0.3137,-0.0829 -0.497,-0.0829 -0.1762,0 -0.3665,0.0242 -0.571,0.0726 -0.1973,0.0483 -0.3559,0.1485 -0.4758,0.3005 0.134,0.0276 0.2503,0.0967 0.349,0.2073 0.0986,0.1105 0.148,0.2521 0.148,0.4248 0,0.1727 -0.0564,0.3109 -0.1692,0.4145 -0.1128,0.0967 -0.2573,0.1451 -0.4335,0.1451 -0.2044,0 -0.356,-0.0622 -0.4547,-0.1865 -0.0916,-0.1313 -0.1374,-0.2764 -0.1374,-0.4353 0,-0.1796 0.0458,-0.3247 0.1374,-0.4352 0.0917,-0.1105 0.208,-0.2141 0.349,-0.3109 0.1621,-0.1105 0.37,-0.2038 0.6238,-0.2798 0.2608,-0.0829 0.5533,-0.1243 0.8776,-0.1243 0.289,0 0.5357,0.0345 0.7402,0.1036 0.2044,0.0622 0.3736,0.1555 0.5075,0.2798 0.1833,0.1658 0.3031,0.3696 0.3595,0.6114 0.0564,0.2349 0.0846,0.5181 0.0846,0.8497 v 2.8809 c 0,0.1727 0.0247,0.297 0.074,0.373 0.0564,0.076 0.141,0.114 0.2538,0.114 0.0775,0 0.1515,-0.0172 0.222,-0.0518 0.0705,-0.0345 0.1551,-0.0898 0.2538,-0.1658 l 0.1163,0.1762 c -0.148,0.1105 -0.289,0.2038 -0.423,0.2798 -0.1339,0.069 -0.3136,0.1036 -0.5392,0.1036 -0.2044,0 -0.3736,-0.0346 -0.5075,-0.1036 -0.134,-0.0691 -0.2362,-0.1693 -0.3067,-0.3006 -0.0634,-0.1381 -0.0951,-0.3108 -0.0951,-0.5181 -0.1904,0.3109 -0.4195,0.5423 -0.6873,0.6943 -0.2608,0.152 -0.5569,0.228 -0.8882,0.228 z m 0.3806,-0.4145 c 0.2327,0 0.4477,-0.0656 0.645,-0.1969 0.2045,-0.1313 0.3877,-0.3282 0.5499,-0.5907 v -2.0311 c -0.0846,0.1175 -0.208,0.2176 -0.3701,0.3005 -0.1622,0.076 -0.3384,0.1555 -0.5287,0.2384 -0.1903,0.076 -0.3736,0.1692 -0.5498,0.2798 -0.1692,0.1036 -0.3102,0.2418 -0.423,0.4145 -0.1128,0.1727 -0.1692,0.3972 -0.1692,0.6736 0,0.2763 0.0741,0.4974 0.2221,0.6632 0.1551,0.1658 0.363,0.2487 0.6238,0.2487 z"
     fill="#000000"
     id="path42" />
  <path
     d="m 89.1964,30 v 7.1606 c 0,0.2902 0.0599,0.4871 0.1798,0.5907 0.1268,0.1036 0.3348,0.1554 0.6238,0.1554 v 0.2177 c -0.1198,-0.007 -0.3031,-0.0139 -0.5498,-0.0208 -0.2397,-0.0138 -0.4829,-0.0207 -0.7296,-0.0207 -0.2397,0 -0.4829,0.0069 -0.7296,0.0207 -0.2467,0.0069 -0.43,0.0138 -0.5498,0.0208 v -0.2177 c 0.289,0 0.4934,-0.0518 0.6133,-0.1554 0.1268,-0.1036 0.1903,-0.3005 0.1903,-0.5907 v -5.9171 c 0,-0.3109 -0.0564,-0.5388 -0.1692,-0.6839 -0.1128,-0.152 -0.3243,-0.228 -0.6344,-0.228 V 30.114 c 0.2256,0.0207 0.4441,0.0311 0.6555,0.0311 0.2045,0 0.3983,-0.0104 0.5816,-0.0311 0.1903,-0.0276 0.363,-0.0656 0.5181,-0.114 z"
     fill="#000000"
     id="path44" />
</svg>
